<?xml version="1.0" encoding="utf-8"?>
<!-- Generator: Adobe Illustrator 24.0.3, SVG Export Plug-In . SVG Version: 6.00 Build 0)  -->
<svg version="1.1" id="Camada_1" xmlns="http://www.w3.org/2000/svg" xmlns:xlink="http://www.w3.org/1999/xlink" x="0px" y="0px"
	 viewBox="0 0 953.5 374.7" style="enable-background:new 0 0 953.5 374.7;" xml:space="preserve">
<style type="text/css">
	.st0{opacity:0.4;}
	.st1{fill-rule:evenodd;clip-rule:evenodd;fill:#007DC4;}
	.st2{fill:#231F20;}
	.st3{fill-rule:evenodd;clip-rule:evenodd;fill:#231F20;}
</style>
<g id="Camada_1_1_" class="st0">
</g>
<g>
	<g>
		<polygon class="st1" points="5210.3,-674.1 5246,-653.5 5281.6,-632.9 5281.6,-591.7 5281.6,-550.5 5246,-529.9 5210.3,-509.3 
			5174.7,-529.9 5139,-550.5 5139,-591.7 5139,-632.9 5174.7,-653.5 		"/>
		<polygon class="st1" points="5453.1,-550.6 5488.8,-529.9 5524.4,-509.3 5524.4,-468.1 5524.4,-426.9 5488.8,-406.2 
			5453.1,-385.6 5417.4,-406.2 5381.7,-426.9 5381.7,-468.1 5381.7,-509.3 5417.4,-529.9 		"/>
		<polygon class="st1" points="5451.6,-848.2 5494.5,-823.5 5537.3,-798.8 5537.3,-749.3 5537.3,-699.9 5494.5,-675.2 
			5451.6,-650.5 5408.8,-675.2 5365.9,-699.9 5365.9,-749.3 5365.9,-798.8 5408.8,-823.5 		"/>
		<polygon class="st1" points="5510.3,-665.8 5538.9,-649.3 5567.5,-632.9 5567.5,-599.9 5567.5,-567.1 5538.9,-550.6 
			5510.3,-534.1 5481.7,-550.6 5453.1,-567.1 5453.1,-599.9 5453.1,-632.9 5481.7,-649.3 		"/>
		<polygon class="st1" points="5324.7,-525.6 5346.1,-513.3 5367.6,-500.9 5367.6,-476.3 5367.6,-451.7 5346.1,-439.3 5324.7,-427 
			5303.2,-439.3 5281.7,-451.7 5281.7,-476.3 5281.7,-500.9 5303.2,-513.3 		"/>
		<polygon class="st1" points="5281.7,-781.2 5310.3,-764.7 5338.8,-748.3 5338.8,-715.4 5338.8,-682.4 5310.3,-666 5281.7,-649.5 
			5253.2,-666 5224.7,-682.4 5224.7,-715.4 5224.7,-748.3 5253.2,-764.7 		"/>
	</g>
	<path class="st2" d="M5617-754.6v81.7c0,15.5,2.4,28.2,6.9,38.1c4.6,9.9,11.2,17.3,20,22c8.7,4.7,19.2,7.1,31.6,7.1
		c12.8,0,23.7-2.4,32.8-7.2c9.1-4.9,16.1-12.2,20.9-22.1c4.8-9.9,7.3-22.3,7.3-37.4v-82.2h-33v84.1c-0.1,13-2.4,22.6-7,28.9
		s-11.3,9.4-20,9.3c-8.4,0-14.9-3.2-19.5-9.6c-4.6-6.4-6.9-15.9-7-28.7v-84.1h-33L5617-754.6L5617-754.6z M5785.7-608.1h33.1V-667
		h52.6v-26.9h-52.6v-33.5h56.3v-27.2h-89.3v146.5H5785.7z M6038.2-691.8h-54.6v25.9h22.6v30.6c-1.3,0.6-3.4,1-6.2,1.4
		c-2.8,0.4-6.1,0.6-9.9,0.6c-6.8,0-13-1.1-18.7-3.2c-5.7-2.2-10.6-5.3-14.6-9.4c-4.2-4.1-7.3-9.1-9.6-15c-2.3-5.9-3.4-12.6-3.4-20.2
		c0-8,1.3-14.9,3.7-20.9c2.4-6,5.9-10.9,10.2-14.9c4.4-4,9.6-6.9,15.5-8.9c5.9-2,12.3-2.9,19.2-2.9c5.3,0,10.1,0.3,14.2,0.8
		s7.8,1.3,10.9,2.2c3.2,0.9,6.2,2,8.8,3.3l7-27c-2.4-1.1-5.6-2.1-9.5-3.1c-4-1-8.5-1.9-13.8-2.6c-5.3-0.7-11-1-17.4-1.1
		c-12.1,0-23.2,1.7-33.3,5.1c-10.1,3.4-19,8.4-26.5,14.9c-7.5,6.6-13.3,14.6-17.5,24.1s-6.3,20.4-6.4,32.6c0,7.2,0.8,14,2.4,20.5
		s4,12.5,7,18.1c3,5.5,6.8,10.4,11.2,14.7c6.7,6.4,15,11.3,24.8,14.6s21.4,5,34.7,5c6.5,0,12.9-0.5,19-1.4
		c6.1-0.9,11.8-1.9,16.9-3.2c5.2-1.3,9.5-2.5,12.9-3.7v-76.9H6038.2L6038.2-691.8z"/>
	<g>
		<path class="st3" d="M5616.7-558.4v18.5c0,10.6,4.9,15.2,13.3,15.2c8.7,0,13.8-4.9,13.8-15.2v-18.6h-7.5v19.1
			c0,5.9-2.2,8.7-6.1,8.7c-3.8,0-6-2.9-6-8.7v-19.1L5616.7-558.4L5616.7-558.4L5616.7-558.4z M5665.5-525.2v-10
			c0-5.4-0.1-10.1-0.3-14.5h0.2c1.6,3.9,3.8,8.1,5.7,11.7l7.1,12.8h7.9v-33.2h-6.9v9.7c0,5,0.1,9.5,0.6,13.9h-0.1
			c-1.5-3.8-3.4-7.9-5.4-11.4l-6.9-12.2h-8.8v33.2H5665.5L5665.5-525.2z M5701-558.4v33.2h7.5v-33.2H5701L5701-558.4z M5739.9-525.2
			l11.2-33.2h-8l-4.3,14.2c-1.1,3.8-2.1,7.7-3,11.7h-0.2c-0.8-4.1-1.8-7.9-3-11.9l-4-14.1h-8.2l10.6,33.2L5739.9-525.2L5739.9-525.2
			z M5782.7-545.3h-12.2v-6.9h12.9v-6.2H5763v33.2h21.2v-6.2h-13.7v-7.9h12.2V-545.3L5782.7-545.3z M5797.5-525.2h7.4v-13.1h2.2
			c3.1,0.1,4.5,1.1,5.5,5.3c0.9,4.1,1.8,6.8,2.2,7.8h7.7c-0.7-1.3-1.6-5.6-2.7-9.5c-0.8-3.1-2.1-5.2-4.4-6.2v-0.1
			c2.8-1,5.8-4,5.8-8.1c0-3-1.1-5.3-3.1-6.9c-2.4-1.9-5.8-2.7-10.7-2.7c-4,0-7.6,0.3-10,0.7v32.8L5797.5-525.2L5797.5-525.2z
			 M5804.9-552.8c0.5-0.1,1.6-0.2,3.4-0.2c3.5,0,5.5,1.6,5.5,4.6c0,2.9-2.2,4.8-6,4.8h-3v-9.2L5804.9-552.8L5804.9-552.8z
			 M5833.7-526.7c1.9,1,5.6,2.1,9.4,2.1c9.1,0,13.4-4.7,13.4-10.3c0-4.8-2.7-7.8-8.6-10c-4.3-1.7-6.1-2.6-6.1-4.7
			c0-1.7,1.6-3.2,4.8-3.2c3.2,0,5.6,0.9,6.9,1.6l1.7-6c-2-0.9-4.7-1.7-8.5-1.7c-7.8,0-12.6,4.3-12.6,9.9c0,4.9,3.7,7.9,9.2,9.9
			c4,1.4,5.6,2.6,5.6,4.6c0,2.2-1.8,3.6-5.3,3.6c-3.2,0-6.3-1-8.3-2.1L5833.7-526.7L5833.7-526.7z M5870-558.4v33.2h7.5v-33.2H5870
			L5870-558.4z M5892.3-525.3c1.8,0.2,4.6,0.5,8.5,0.5c6.5,0,11.9-1.4,15.4-4.3c3.1-2.7,5.5-7.1,5.5-13.5c0-5.9-2.1-10.1-5.6-12.6
			c-3.2-2.4-7.3-3.4-13.7-3.4c-3.7,0-7.3,0.2-10.1,0.7L5892.3-525.3L5892.3-525.3z M5899.8-552.6c0.6-0.2,1.8-0.3,3.4-0.3
			c6.5,0,10.5,3.4,10.5,10.6c0,7.9-4.5,11.7-11.3,11.6c-0.9,0-2,0-2.6-0.2V-552.6L5899.8-552.6z M5952.1-533.7l2.6,8.5h8l-10.3-33.2
			h-9.8l-10.1,33.2h7.8l2.3-8.5H5952.1L5952.1-533.7z M5943.6-539.3l2-7c0.5-1.9,1-4.4,1.5-6.4h0.1c0.5,1.9,1.1,4.4,1.6,6.4l2.1,7
			H5943.6L5943.6-539.3z M5975.5-525.3c1.8,0.2,4.6,0.5,8.5,0.5c6.5,0,11.8-1.4,15.4-4.3c3.2-2.7,5.5-7.1,5.5-13.5
			c0-5.9-2.2-10.1-5.6-12.6c-3.2-2.4-7.3-3.4-13.6-3.4c-3.7,0-7.3,0.2-10.1,0.7L5975.5-525.3L5975.5-525.3z M5983-552.6
			c0.6-0.2,1.8-0.3,3.4-0.3c6.5,0,10.5,3.4,10.5,10.6c0,7.9-4.4,11.7-11.3,11.6c-0.9,0-2,0-2.6-0.2V-552.6L5983-552.6z
			 M6037.8-545.3h-12.2v-6.9h12.9v-6.2h-20.4v33.2h21.1v-6.2h-13.6v-7.9h12.2V-545.3z"/>
		<path class="st3" d="M5616.6-476h7.5v-13.4h11.9v-6.1h-11.9v-7.6h12.8v-6.2h-20.3V-476L5616.6-476z M5660.9-496.2h-12.2v-6.9h12.9
			v-6.2h-20.4v33.2h21.1v-6.1h-13.6v-7.9h12.2V-496.2L5660.9-496.2z M5667.4-476.1c1.8,0.3,4.6,0.5,8.5,0.5c6.5,0,11.9-1.3,15.4-4.3
			c3.2-2.7,5.5-7.1,5.5-13.5c0-5.9-2.2-10-5.6-12.6c-3.1-2.4-7.3-3.4-13.6-3.4c-3.7,0-7.3,0.3-10.1,0.7L5667.4-476.1L5667.4-476.1z
			 M5674.9-503.4c0.6-0.1,1.7-0.3,3.4-0.3c6.5,0,10.5,3.4,10.5,10.6c0,7.9-4.5,11.7-11.3,11.6c-0.9,0-2,0-2.6-0.1V-503.4
			L5674.9-503.4z M5721.5-496.2h-12.2v-6.9h13v-6.2h-20.4v33.2h21.1v-6.1h-13.6v-7.9h12.2v-6.1H5721.5z M5728-476h7.4v-13.1h2.2
			c3.1,0,4.5,1.1,5.5,5.3c0.9,4.1,1.7,6.8,2.2,7.8h7.7c-0.6-1.3-1.6-5.6-2.7-9.4c-0.8-3.1-2.1-5.2-4.4-6.2v-0.1
			c2.9-1,5.9-3.9,5.9-8.1c0-3-1.1-5.3-3.1-6.9c-2.4-1.9-5.8-2.7-10.7-2.7c-4,0-7.6,0.3-10,0.7V-476L5728-476z M5735.5-503.6
			c0.5-0.1,1.6-0.3,3.4-0.3c3.4,0,5.5,1.6,5.5,4.6c0,2.9-2.2,4.7-6,4.7h-2.9V-503.6L5735.5-503.6z M5774.9-484.5l2.6,8.5h8.1
			l-10.4-33.2h-9.8l-10.1,33.2h7.8l2.3-8.5H5774.9L5774.9-484.5z M5766.4-490.1l2-7c0.5-1.9,1-4.5,1.5-6.4h0.2
			c0.5,1.9,1,4.5,1.6,6.4l2.1,7H5766.4L5766.4-490.1z M5789.5-476h20.7v-6.3H5797v-26.9h-7.5V-476L5789.5-476z M5826.1-476.1
			c1.8,0.3,4.6,0.5,8.5,0.5c6.5,0,11.9-1.4,15.4-4.3c3.1-2.7,5.5-7.1,5.5-13.5c0-5.9-2.2-10-5.6-12.6c-3.2-2.4-7.3-3.4-13.6-3.4
			c-3.7,0-7.3,0.3-10.1,0.7L5826.1-476.1L5826.1-476.1z M5833.5-503.4c0.7-0.1,1.7-0.3,3.4-0.3c6.5,0,10.6,3.4,10.6,10.6
			c0,7.9-4.5,11.7-11.3,11.6c-0.9,0-1.9,0-2.6-0.1v-21.8L5833.5-503.4L5833.5-503.4z M5880.1-496.2h-12.2v-6.9h12.9v-6.2h-20.4v33.2
			h21.1v-6.1h-13.6v-7.9h12.2V-496.2L5880.1-496.2z M5930.7-495h-12.4v5.9h5.1v7c-0.6,0.2-2,0.4-3.6,0.4c-6.1,0-10.5-4-10.5-10.8
			c0-7.2,4.8-10.8,11-10.8c3.6,0,5.9,0.6,7.7,1.4l1.6-6.1c-1.6-0.7-4.9-1.5-9.2-1.5c-10.9,0-18.9,6.3-18.9,17.4
			c0,4.9,1.7,9.2,4.7,12.1c3.1,2.9,7.5,4.5,13.5,4.5c4.4,0,8.7-1.1,11.1-1.9V-495H5930.7z M5950.7-475.5c9.7,0,16.3-6.6,16.3-17.5
			c0-9.2-5.6-16.8-15.7-16.8c-9.8,0-16.2,7.4-16.2,17.4C5935.1-482.9,5940.9-475.5,5950.7-475.5L5950.7-475.5L5950.7-475.5z
			 M5951-481.4c-5,0-8-4.9-8-11.1s2.9-11.2,8.1-11.2s8,5.1,8,11.1C5959-486.2,5956.1-481.4,5951-481.4L5951-481.4L5951-481.4z
			 M5972-509.2v33.2h7.5v-33.2H5972L5972-509.2z M6003.2-484.5l2.6,8.5h8.1l-10.3-33.2h-9.8l-10.1,33.2h7.8l2.3-8.5H6003.2
			L6003.2-484.5z M5994.7-490.1l2-7c0.4-1.9,1-4.5,1.5-6.4h0.1c0.5,1.9,1.1,4.4,1.6,6.4l2.1,7H5994.7L5994.7-490.1z M5999.8-517.2
			l-4.3,6.2h5.9l6.1-6.2H5999.8L5999.8-517.2z M6017-477.5c1.9,1,5.6,2.1,9.4,2.1c9.1,0,13.3-4.7,13.3-10.3c0-4.7-2.7-7.8-8.6-10
			c-4.3-1.7-6.1-2.6-6.1-4.7c0-1.7,1.6-3.2,4.8-3.2c3.2,0,5.6,0.9,6.9,1.6l1.7-6c-2-0.9-4.7-1.7-8.5-1.7c-7.8,0-12.6,4.3-12.6,9.9
			c0,4.9,3.6,7.9,9.2,9.9c4,1.4,5.6,2.6,5.6,4.6c0,2.2-1.9,3.6-5.3,3.6c-3.2,0-6.4-1-8.3-2.1L6017-477.5z"/>
	</g>
</g>
<g>
	<path class="st2" d="M134.3,20h32.8v117.1h57.5v27.4h-90.3V20z"/>
	<path class="st2" d="M303.3,164.5l-1.9-10.5h-0.6c-6.9,8.4-17.6,12.9-30,12.9c-21.2,0-33.9-15.4-33.9-32.2
		c0-27.2,24.4-40.3,61.5-40.1v-1.5c0-5.6-3-13.5-19.1-13.5c-10.7,0-22.1,3.6-29,7.9l-6-21c7.3-4.1,21.7-9.2,40.7-9.2
		c35,0,46.1,20.6,46.1,45.2V139c0,10.1,0.4,19.7,1.5,25.5H303.3z M299.4,115c-17.2-0.2-30.5,3.9-30.5,16.5c0,8.4,5.6,12.4,12.9,12.4
		c8.1,0,14.8-5.4,16.9-12c0.4-1.7,0.6-3.6,0.6-5.6L299.4,115L299.4,115z"/>
	<path class="st2" d="M480.2,109.2c-0.6-17.4-1.3-38.4-1.3-59.4h-0.6c-4.5,18.4-10.5,39-16.1,56l-17.6,56.3h-25.5l-15.4-56
		c-4.7-16.9-9.7-37.5-13.1-56.4h-0.4c-0.9,19.5-1.5,41.8-2.6,59.8l-2.6,54.9h-30.2L364,19.9h43.5l14.2,48.3
		c4.5,16.7,9,34.7,12.2,51.7h0.6c4.1-16.7,9-35.8,13.7-51.9l15.4-48h42.7l7.9,144.5h-32L480.2,109.2z"/>
	<path class="st2" d="M645.5,160.4c-6,3-19.5,6.2-37.1,6.2c-50,0-75.7-31.1-75.7-72.3c0-49.3,35.2-76.8,78.9-76.8
		c16.9,0,29.8,3.4,35.6,6.4l-6.6,25.9c-6.6-2.8-15.9-5.4-27.4-5.4c-25.9,0-46.1,15.7-46.1,47.8c0,29,17.2,47.2,46.3,47.2
		c9.9,0,20.8-2.1,27.2-4.7L645.5,160.4z"/>
	<path class="st2" d="M702.8,127.4l-10.3,37.1h-33.9L702.8,20h42.9l44.8,144.5h-35.2l-11.2-37.1H702.8z M739.4,102.9l-9-30.7
		c-2.6-8.6-5.1-19.3-7.3-27.9h-0.4c-2.1,8.6-4.3,19.5-6.6,27.9l-8.6,30.7H739.4z"/>
	<path class="st2" d="M809.8,21.9c12-1.9,27.7-3,44.2-3c27.4,0,45.2,4.9,59.2,15.4c15,11.2,24.4,29,24.4,54.5
		c0,27.7-10.1,46.7-24,58.5C898.4,160,875.2,166,846.9,166c-16.9,0-29-1.1-37.1-2.1V21.9z M842.6,139.8c2.8,0.6,7.3,0.6,11.4,0.6
		c29.6,0.2,48.9-16.1,48.9-50.6c0.2-30-17.4-45.9-45.5-45.9c-7.3,0-12,0.6-14.8,1.3V139.8z"/>
</g>
<g>
	<path class="st2" d="M130.4,246.3h6.8v31.5h15.3v5.7h-22.1V246.3z"/>
	<path class="st2" d="M165.3,273l-3.2,10.5h-7l11.9-37.2h8.7l12.1,37.2h-7.3l-3.4-10.5H165.3z M176,267.9l-2.9-9.2
		c-0.7-2.3-1.3-4.8-1.9-7h-0.1c-0.6,2.2-1.1,4.8-1.8,7l-2.9,9.2H176z"/>
	<path class="st2" d="M193,246.8c2.2-0.4,6.1-0.8,9.9-0.8c5,0,8.1,0.6,10.7,2.4c2.3,1.4,3.9,3.8,3.9,7c0,3.4-2.2,6.6-6.2,8.1v0.1
		c3.9,1,7.5,4.1,7.5,9.2c0,3.3-1.4,5.9-3.6,7.7c-2.7,2.3-7,3.5-13.8,3.5c-3.8,0-6.6-0.3-8.3-0.5v-36.7H193z M199.7,261.5h3.5
		c4.7,0,7.3-2.2,7.3-5.4c0-3.5-2.7-5.1-7-5.1c-2,0-3.1,0.1-3.9,0.3v10.2H199.7z M199.7,278.7c0.9,0.1,2,0.2,3.6,0.2
		c4.4,0,8.2-1.7,8.2-6.2c0-4.3-3.8-6.1-8.5-6.1h-3.4v12.1H199.7z"/>
	<path class="st2" d="M257.8,264.6c0,12.5-7.6,19.6-17.8,19.6c-10.5,0-17.1-8-17.1-18.9c0-11.4,7.2-19.5,17.7-19.5
		C251.4,245.7,257.8,254,257.8,264.6z M230.1,265.1c0,7.6,3.8,13.6,10.3,13.6c6.6,0,10.3-6.1,10.3-13.9c0-7-3.5-13.6-10.3-13.6
		S230.1,257.4,230.1,265.1z"/>
	<path class="st2" d="M263.7,246.8c2.5-0.4,6.4-0.8,10.3-0.8c5.4,0,9,0.9,11.5,3c2,1.7,3.2,4.3,3.2,7.5c0,4.8-3.3,8.1-6.7,9.3v0.2
		c2.7,1,4.3,3.6,5.2,7.2c1.2,4.6,2.2,8.9,2.9,10.4h-7c-0.6-1.1-1.4-4.1-2.5-8.8c-1-4.9-2.8-6.4-6.7-6.5h-3.4v15.3h-6.7L263.7,246.8
		L263.7,246.8z M270.4,263.3h4c4.6,0,7.5-2.4,7.5-6.1c0-4.1-2.9-6-7.3-6c-2.2,0-3.5,0.2-4.2,0.3V263.3z"/>
	<path class="st2" d="M303,273l-3.2,10.5h-7l11.9-37.2h8.7l12.1,37.2h-7.3l-3.4-10.5H303z M313.6,267.9l-2.9-9.2
		c-0.7-2.3-1.3-4.8-1.9-7h-0.1c-0.6,2.2-1.1,4.8-1.8,7l-2.9,9.2H313.6z"/>
	<path class="st2" d="M333.3,252h-10.6v-5.7h28.1v5.7h-10.7v31.5h-6.8V252z"/>
	<path class="st2" d="M386.7,264.6c0,12.5-7.6,19.6-17.8,19.6c-10.5,0-17.1-8-17.1-18.9c0-11.4,7.2-19.5,17.7-19.5
		C380.3,245.7,386.7,254,386.7,264.6z M358.9,265.1c0,7.6,3.8,13.6,10.3,13.6c6.6,0,10.3-6.1,10.3-13.9c0-7-3.5-13.6-10.3-13.6
		C362.5,251.2,358.9,257.4,358.9,265.1z M378.1,237.6l-6.9,6.6h-5.5l4.9-6.6H378.1z"/>
	<path class="st2" d="M392.5,246.8c2.5-0.4,6.4-0.8,10.3-0.8c5.4,0,9,0.9,11.5,3c2,1.7,3.2,4.3,3.2,7.5c0,4.8-3.3,8.1-6.7,9.3v0.2
		c2.7,1,4.3,3.6,5.2,7.2c1.2,4.6,2.2,8.9,2.9,10.4h-7c-0.6-1.1-1.4-4.1-2.5-8.8c-1-4.9-2.8-6.4-6.7-6.5h-3.4v15.3h-6.7L392.5,246.8
		L392.5,246.8z M399.3,263.3h4c4.6,0,7.5-2.4,7.5-6.1c0-4.1-2.9-6-7.3-6c-2.2,0-3.5,0.2-4.2,0.3V263.3z"/>
	<path class="st2" d="M430.7,246.3v37.2h-6.8v-37.2H430.7z"/>
	<path class="st2" d="M471.6,264.6c0,12.5-7.6,19.6-17.8,19.6c-10.5,0-17.1-8-17.1-18.9c0-11.4,7.2-19.5,17.7-19.5
		C465.2,245.7,471.6,254,471.6,264.6z M443.8,265.1c0,7.6,3.8,13.6,10.3,13.6c6.6,0,10.3-6.1,10.3-13.9c0-7-3.5-13.6-10.3-13.6
		C447.4,251.2,443.8,257.4,443.8,265.1z"/>
	<path class="st2" d="M520.3,268.4c-0.2-4.8-0.5-10.6-0.4-15.6h-0.2c-1.2,4.5-2.8,9.6-4.4,14.3l-5.4,16.1h-5.2l-5-15.9
		c-1.4-4.8-2.8-9.8-3.8-14.5h-0.1c-0.2,4.9-0.4,10.8-0.7,15.9l-0.8,15h-6.4l2.5-37.2h8.9l4.9,15c1.3,4.4,2.5,8.8,3.4,12.9h0.2
		c1-4,2.3-8.6,3.7-13l5.1-14.9h8.8l2.2,37.2H521L520.3,268.4z"/>
	<path class="st2" d="M541.3,246.3V268c0,7.3,3,10.7,7.6,10.7c4.9,0,7.8-3.4,7.8-10.7v-21.7h6.8v21.3c0,11.5-5.9,16.6-14.9,16.6
		c-8.6,0-14.2-4.8-14.2-16.5v-21.3h6.9V246.3z"/>
	<path class="st2" d="M571.3,246.3h6.8v31.5h15.3v5.7h-22.1L571.3,246.3L571.3,246.3z"/>
	<path class="st2" d="M600.3,252h-10.6v-5.7h28.1v5.7h-10.7v31.5h-6.8V252z"/>
	<path class="st2" d="M629,246.3v37.2h-6.8v-37.2H629z"/>
	<path class="st2" d="M643.5,246.3V268c0,7.3,3,10.7,7.6,10.7c4.9,0,7.8-3.4,7.8-10.7v-21.7h6.8v21.3c0,11.5-5.9,16.6-14.9,16.6
		c-8.6,0-14.2-4.8-14.2-16.5v-21.3h6.9V246.3z"/>
	<path class="st2" d="M673.4,276.2c2.2,1.3,5.5,2.4,9,2.4c4.4,0,6.8-2,6.8-5.1c0-2.8-1.9-4.5-6.6-6.2c-6.1-2.2-10.1-5.5-10.1-10.8
		c0-6.1,5.1-10.7,13.1-10.7c4,0,7,0.9,8.9,1.9l-1.7,5.5c-1.3-0.7-3.9-1.8-7.4-1.8c-4.3,0-6.2,2.3-6.2,4.5c0,2.9,2.2,4.2,7.1,6.1
		c6.5,2.4,9.6,5.7,9.6,11c0,6-4.5,11.2-14.1,11.2c-3.9,0-8-1.1-10.1-2.3L673.4,276.2z"/>
	<path class="st2" d="M709,246.3V268c0,7.3,3,10.7,7.6,10.7c4.9,0,7.8-3.4,7.8-10.7v-21.7h6.8v21.3c0,11.5-5.9,16.6-14.9,16.6
		c-8.6,0-14.2-4.8-14.2-16.5v-21.3h6.9V246.3z"/>
	<path class="st2" d="M744.7,273l-3.2,10.5h-7l11.9-37.2h8.7l12.1,37.2h-7.3l-3.4-10.5H744.7z M755.4,267.9l-2.9-9.2
		c-0.7-2.3-1.3-4.8-1.9-7h-0.1c-0.6,2.2-1.1,4.8-1.8,7l-2.9,9.2H755.4z M759.8,237.7l-6.9,6.6h-5.5l4.9-6.6H759.8z"/>
	<path class="st2" d="M772.4,246.8c2.5-0.4,6.4-0.8,10.3-0.8c5.4,0,9,0.9,11.5,3c2,1.7,3.2,4.3,3.2,7.5c0,4.8-3.3,8.1-6.7,9.3v0.2
		c2.7,1,4.3,3.6,5.2,7.2c1.2,4.6,2.2,8.9,2.9,10.4h-7c-0.6-1.1-1.4-4.1-2.5-8.8c-1-4.9-2.8-6.4-6.7-6.5h-3.4v15.3h-6.7v-36.8H772.4z
		 M779.1,263.3h4c4.6,0,7.5-2.4,7.5-6.1c0-4.1-2.9-6-7.3-6c-2.2,0-3.5,0.2-4.2,0.3V263.3z"/>
	<path class="st2" d="M810.6,246.3v37.2h-6.8v-37.2H810.6z"/>
	<path class="st2" d="M851.5,264.6c0,12.5-7.6,19.6-17.8,19.6c-10.5,0-17.1-8-17.1-18.9c0-11.4,7.2-19.5,17.7-19.5
		C845,245.7,851.5,254,851.5,264.6z M823.7,265.1c0,7.6,3.8,13.6,10.3,13.6c6.6,0,10.3-6.1,10.3-13.9c0-7-3.5-13.6-10.3-13.6
		C827.3,251.2,823.7,257.4,823.7,265.1z"/>
	<path class="st2" d="M868.7,246.8c3-0.5,6.8-0.8,10.8-0.8c7,0,11.8,1.4,15.2,4.3c3.6,2.9,5.8,7.3,5.8,13.7c0,6.6-2.3,11.6-5.8,14.8
		c-3.7,3.4-9.6,5.1-16.8,5.1c-4,0-7-0.2-9.2-0.5V246.8z M875.5,278.4c0.9,0.2,2.4,0.2,3.8,0.2c8.8,0.1,14.1-4.8,14.1-14.3
		c0.1-8.2-4.7-12.9-13.2-12.9c-2.2,0-3.7,0.2-4.6,0.4v26.6H875.5z"/>
	<path class="st2" d="M927.3,267.1h-14V278H929v5.6h-22.5v-37.2h21.7v5.6h-14.9v9.6h14L927.3,267.1L927.3,267.1z"/>
	<path class="st2" d="M47.9,348.8c-1.6,0.8-5.1,1.7-9.6,1.7c-11.8,0-19-7.4-19-18.7c0-12.3,8.5-19.7,19.9-19.7
		c4.5,0,7.7,0.9,9.1,1.7l-1.5,5.4c-1.8-0.8-4.2-1.4-7.3-1.4c-7.6,0-13,4.8-13,13.7c0,8.2,4.8,13.4,13,13.4c2.8,0,5.6-0.6,7.4-1.4
		L47.9,348.8z"/>
	<path class="st2" d="M85.3,330.9c0,12.5-7.6,19.6-17.8,19.6c-10.5,0-17.1-8-17.1-18.9c0-11.4,7.2-19.5,17.7-19.5
		C78.9,312,85.3,320.3,85.3,330.9z M57.5,331.4c0,7.6,3.8,13.6,10.3,13.6c6.6,0,10.3-6.1,10.3-13.9c0-7-3.5-13.6-10.3-13.6
		C61.1,317.5,57.5,323.7,57.5,331.4z"/>
	<path class="st2" d="M122.6,334.7c-0.2-4.8-0.5-10.6-0.4-15.6H122c-1.2,4.5-2.8,9.6-4.4,14.3l-5.4,16.1H107l-5-15.9
		c-1.4-4.8-2.8-9.8-3.8-14.5h-0.1c-0.2,4.9-0.4,10.8-0.7,15.9l-0.8,15h-6.4l2.5-37.2h8.9l4.9,15c1.3,4.4,2.5,8.8,3.4,12.9h0.2
		c1-4,2.3-8.6,3.7-13l5.1-14.9h8.8l2.2,37.2h-6.6L122.6,334.7z"/>
	<path class="st2" d="M136.9,313.1c2.4-0.4,5.8-0.8,10.4-0.8c5,0,8.6,1,11,3c2.2,1.8,3.6,4.8,3.6,8.2c0,3.5-1.1,6.5-3.2,8.5
		c-2.7,2.7-7,4-11.8,4c-1.3,0-2.4-0.1-3.3-0.2v14h-6.7V313.1z M143.6,330.5c0.8,0.2,1.9,0.3,3.3,0.3c5.1,0,8.2-2.5,8.2-6.8
		c0-4.1-2.9-6.4-7.6-6.4c-1.9,0-3.2,0.2-3.9,0.3V330.5z"/>
	<path class="st2" d="M174.5,312.6v21.7c0,7.3,3,10.7,7.6,10.7c4.9,0,7.8-3.4,7.8-10.7v-21.7h6.8v21.3c0,11.5-5.9,16.6-14.9,16.6
		c-8.6,0-14.2-4.8-14.2-16.5v-21.3L174.5,312.6L174.5,312.6z"/>
	<path class="st2" d="M211.7,318.3H201v-5.7h28.1v5.7h-10.7v31.5h-6.8v-31.5H211.7z"/>
	<path class="st2" d="M237,339.3l-3.2,10.5h-7l11.9-37.2h8.7l12.1,37.2h-7.3l-3.4-10.5H237z M247.6,334.2l-2.9-9.2
		c-0.7-2.3-1.3-4.8-1.9-7h-0.1c-0.6,2.2-1.1,4.8-1.8,7l-2.9,9.2H247.6z"/>
	<path class="st2" d="M290.1,348.8c-1.5,0.8-4.8,1.6-9.2,1.7l-1.2,2c2.1,0.4,3.9,1.9,3.9,4.3c0,3.6-3.1,4.9-6.1,4.9
		c-1.6,0-3.3-0.4-4.4-1l1-3c0.8,0.4,2,0.8,3.1,0.8c1.2,0,2.1-0.4,2.1-1.5c0-1.2-1.5-1.9-4.3-2.2l2.2-4.4
		c-9.9-1.2-15.7-8.2-15.7-18.5c0-12.3,8.5-19.7,19.9-19.7c4.5,0,7.7,0.9,9.1,1.7l-1.5,5.2c-1.8-0.8-4.2-1.4-7.3-1.4
		c-7.6,0-13,4.8-13,13.7c0,8.2,4.8,13.4,13,13.4c2.7,0,5.6-0.6,7.4-1.4L290.1,348.8z"/>
	<path class="st2" d="M304,339.3l-3.2,10.5h-7l11.9-37.2h8.7l12.1,37.2h-7.3l-3.4-10.5H304z M303,310.4c-0.1-4.1,1.5-6.4,4-6.4
		c1.4,0,2.4,0.5,3.4,1.1c0.9,0.6,1.8,1,2.5,1c0.9,0,1.3-0.5,1.5-2.3h3.3c0.1,4.3-1.4,6.2-4.1,6.2c-1.4,0-2.4-0.4-3.5-1
		c-1-0.6-1.7-1-2.5-1s-1.3,0.8-1.4,2.4H303z M314.7,334.2l-2.9-9.2c-0.7-2.3-1.3-4.8-1.9-7h-0.1c-0.6,2.2-1.1,4.8-1.8,7l-2.9,9.2
		H314.7z"/>
	<path class="st2" d="M363.6,330.9c0,12.5-7.6,19.6-17.8,19.6c-10.5,0-17.1-8-17.1-18.9c0-11.4,7.2-19.5,17.7-19.5
		C357.2,312,363.6,320.3,363.6,330.9z M335.8,331.4c0,7.6,3.8,13.6,10.3,13.6c6.6,0,10.3-6.1,10.3-13.9c0-7-3.5-13.6-10.3-13.6
		C339.4,317.5,335.8,323.7,335.8,331.4z"/>
	<path class="st2" d="M380.9,313.1c3-0.5,6.8-0.8,10.8-0.8c7,0,11.8,1.4,15.2,4.3c3.6,2.9,5.8,7.3,5.8,13.7c0,6.6-2.3,11.6-5.8,14.8
		c-3.7,3.4-9.6,5.1-16.8,5.1c-4,0-7-0.2-9.2-0.5V313.1z M387.6,344.7c0.9,0.2,2.4,0.2,3.8,0.2c8.8,0.1,14.1-4.8,14.1-14.3
		c0.1-8.2-4.7-12.9-13.2-12.9c-2.2,0-3.7,0.2-4.6,0.4L387.6,344.7L387.6,344.7z"/>
	<path class="st2" d="M439.4,333.3h-14v10.9h15.7v5.6h-22.5v-37.2h21.7v5.6h-14.9v9.6h14V333.3z"/>
	<path class="st2" d="M465.9,339.3l-3.2,10.5h-7l11.9-37.2h8.7l12.1,37.2h-7.3l-3.4-10.5H465.9z M476.6,334.2l-2.9-9.2
		c-0.7-2.3-1.3-4.8-1.9-7h-0.1c-0.6,2.2-1.1,4.8-1.8,7l-2.9,9.2H476.6z"/>
	<path class="st2" d="M493.6,312.6h6.8v31.5h15.3v5.7h-22.1L493.6,312.6L493.6,312.6z"/>
	<path class="st2" d="M522.6,318.3H512v-5.7h28.1v5.7h-10.7v31.5h-6.8V318.3z"/>
	<path class="st2" d="M576,330.9c0,12.5-7.6,19.6-17.8,19.6c-10.5,0-17.1-8-17.1-18.9c0-11.4,7.2-19.5,17.7-19.5
		C569.6,312,576,320.3,576,330.9z M548.2,331.4c0,7.6,3.8,13.6,10.3,13.6c6.6,0,10.3-6.1,10.3-13.9c0-7-3.5-13.6-10.3-13.6
		C551.8,317.5,548.2,323.7,548.2,331.4z"/>
	<path class="st2" d="M593.3,313.1c3-0.5,6.8-0.8,10.8-0.8c7,0,11.8,1.4,15.2,4.3c3.6,2.9,5.8,7.3,5.8,13.7c0,6.6-2.3,11.6-5.8,14.8
		c-3.7,3.4-9.6,5.1-16.8,5.1c-4,0-7-0.2-9.2-0.5V313.1z M600.1,344.7c0.9,0.2,2.4,0.2,3.8,0.2c8.8,0.1,14.1-4.8,14.1-14.3
		c0.1-8.2-4.7-12.9-13.2-12.9c-2.2,0-3.7,0.2-4.6,0.4v26.6H600.1z"/>
	<path class="st2" d="M651.8,333.3h-14v10.9h15.7v5.6H631v-37.2h21.7v5.6h-14.9v9.6h14L651.8,333.3L651.8,333.3z"/>
	<path class="st2" d="M659.3,342.5c2.2,1.3,5.5,2.4,9,2.4c4.4,0,6.8-2,6.8-5.1c0-2.8-1.9-4.5-6.6-6.2c-6.1-2.2-10.1-5.5-10.1-10.8
		c0-6.1,5.1-10.7,13.1-10.7c4,0,7,0.9,8.9,1.9l-1.7,5.5c-1.3-0.7-3.9-1.8-7.4-1.8c-4.3,0-6.2,2.3-6.2,4.5c0,2.9,2.2,4.2,7.1,6.1
		c6.5,2.4,9.6,5.7,9.6,11c0,6-4.5,11.2-14.1,11.2c-3.9,0-8-1.1-10.1-2.3L659.3,342.5z"/>
	<path class="st2" d="M708.9,333.3h-14v10.9h15.7v5.6h-22.5v-37.2h21.7v5.6h-14.9v9.6h14L708.9,333.3L708.9,333.3z"/>
	<path class="st2" d="M748,334.7c-0.2-4.8-0.5-10.6-0.4-15.6h-0.2c-1.2,4.5-2.8,9.6-4.4,14.3l-5.4,16.1h-5.2l-5-15.9
		c-1.4-4.8-2.8-9.8-3.8-14.5h-0.1c-0.2,4.9-0.4,10.8-0.7,15.9l-0.8,15h-6.4l2.5-37.2h8.9l4.9,15c1.3,4.4,2.5,8.8,3.4,12.9h0.2
		c1-4,2.3-8.6,3.7-13l5.1-14.9h8.8l2.2,37.2h-6.6L748,334.7z"/>
	<path class="st2" d="M762.2,313.1c2.4-0.4,5.8-0.8,10.4-0.8c5,0,8.6,1,11,3c2.2,1.8,3.6,4.8,3.6,8.2c0,3.5-1.1,6.5-3.2,8.5
		c-2.7,2.7-7,4-11.8,4c-1.3,0-2.4-0.1-3.3-0.2v14h-6.7V313.1z M769,330.5c0.8,0.2,1.9,0.3,3.3,0.3c5.1,0,8.2-2.5,8.2-6.8
		c0-4.1-2.9-6.4-7.6-6.4c-1.9,0-3.2,0.2-3.9,0.3V330.5z"/>
	<path class="st2" d="M813.9,333.3h-14v10.9h15.7v5.6h-22.5v-37.2h21.7v5.6h-14.9v9.6h14L813.9,333.3L813.9,333.3z"/>
	<path class="st2" d="M821.6,349.9v-37.2h7.7l9.6,16c2.5,4.1,4.6,8.5,6.4,12.5h0.1c-0.4-5-0.6-9.8-0.6-15.5v-13h6.3v37.2h-7
		l-9.7-16.4c-2.4-4.1-4.9-8.7-6.7-12.9l-0.2,0.1c0.3,4.8,0.3,9.7,0.3,15.9v13.3L821.6,349.9L821.6,349.9z"/>
	<path class="st2" d="M865.7,312.6v14.9h15.7v-14.9h6.8v37.2h-6.8v-16.4h-15.7v16.4h-6.8v-37.2H865.7z"/>
	<path class="st2" d="M929.1,330.9c0,12.5-7.6,19.6-17.8,19.6c-10.5,0-17.1-8-17.1-18.9c0-11.4,7.2-19.5,17.7-19.5
		C922.7,312,929.1,320.3,929.1,330.9z M901.3,331.4c0,7.6,3.8,13.6,10.3,13.6c6.6,0,10.3-6.1,10.3-13.9c0-7-3.5-13.6-10.3-13.6
		C904.9,317.5,901.3,323.7,901.3,331.4z"/>
</g>
</svg>
